<mxfile host="app.diagrams.net" agent="Mozilla/5.0 (Windows NT 10.0; Win64; x64) AppleWebKit/537.36 (KHTML, like Gecko) Chrome/140.0.0.0 Safari/537.36" version="28.2.4">
  <diagram name="페이지-1" id="IiwGGDcf4LWJhD2w1qXp">
    <mxGraphModel dx="974" dy="532" grid="1" gridSize="10" guides="1" tooltips="1" connect="1" arrows="1" fold="1" page="1" pageScale="1" pageWidth="827" pageHeight="1169" math="0" shadow="0">
      <root>
        <mxCell id="0" />
        <mxCell id="1" parent="0" />
        <mxCell id="Tfvl5vLu5UUE4gmdg45y-1" value="Sw-RCS" style="sketch=0;html=1;aspect=fixed;strokeColor=none;shadow=0;fillColor=#3B8DF1;verticalAlign=top;labelPosition=center;verticalLabelPosition=bottom;shape=mxgraph.gcp2.repository_primary" vertex="1" parent="1">
          <mxGeometry x="500" y="120" width="100" height="100" as="geometry" />
        </mxCell>
        <mxCell id="Tfvl5vLu5UUE4gmdg45y-2" value="ROSCommon" style="sketch=0;html=1;aspect=fixed;strokeColor=none;shadow=0;fillColor=#3B8DF1;verticalAlign=top;labelPosition=center;verticalLabelPosition=bottom;shape=mxgraph.gcp2.repository_primary" vertex="1" parent="1">
          <mxGeometry x="300" y="120" width="100" height="100" as="geometry" />
        </mxCell>
        <mxCell id="Tfvl5vLu5UUE4gmdg45y-3" value="PCC30" style="sketch=0;html=1;aspect=fixed;strokeColor=none;shadow=0;fillColor=#3B8DF1;verticalAlign=top;labelPosition=center;verticalLabelPosition=bottom;shape=mxgraph.gcp2.repository_primary" vertex="1" parent="1">
          <mxGeometry x="60" y="40" width="100" height="100" as="geometry" />
        </mxCell>
        <mxCell id="Tfvl5vLu5UUE4gmdg45y-4" value="Smart-ROS" style="sketch=0;html=1;aspect=fixed;strokeColor=none;shadow=0;fillColor=#3B8DF1;verticalAlign=top;labelPosition=center;verticalLabelPosition=bottom;shape=mxgraph.gcp2.repository_primary" vertex="1" parent="1">
          <mxGeometry x="60" y="200" width="100" height="100" as="geometry" />
        </mxCell>
        <mxCell id="Tfvl5vLu5UUE4gmdg45y-6" style="edgeStyle=orthogonalEdgeStyle;rounded=0;orthogonalLoop=1;jettySize=auto;html=1;entryX=0.032;entryY=0.48;entryDx=0;entryDy=0;entryPerimeter=0;" edge="1" parent="1" source="Tfvl5vLu5UUE4gmdg45y-3" target="Tfvl5vLu5UUE4gmdg45y-2">
          <mxGeometry relative="1" as="geometry" />
        </mxCell>
        <mxCell id="Tfvl5vLu5UUE4gmdg45y-7" style="edgeStyle=orthogonalEdgeStyle;rounded=0;orthogonalLoop=1;jettySize=auto;html=1;entryX=0.039;entryY=0.48;entryDx=0;entryDy=0;entryPerimeter=0;" edge="1" parent="1" source="Tfvl5vLu5UUE4gmdg45y-4" target="Tfvl5vLu5UUE4gmdg45y-2">
          <mxGeometry relative="1" as="geometry" />
        </mxCell>
        <mxCell id="Tfvl5vLu5UUE4gmdg45y-8" style="edgeStyle=orthogonalEdgeStyle;rounded=0;orthogonalLoop=1;jettySize=auto;html=1;entryX=0.012;entryY=0.501;entryDx=0;entryDy=0;entryPerimeter=0;" edge="1" parent="1" source="Tfvl5vLu5UUE4gmdg45y-2" target="Tfvl5vLu5UUE4gmdg45y-1">
          <mxGeometry relative="1" as="geometry" />
        </mxCell>
      </root>
    </mxGraphModel>
  </diagram>
</mxfile>
